<?xml version="1.0" encoding="us-ascii" standalone="no"?><svg xmlns="http://www.w3.org/2000/svg" xmlns:xlink="http://www.w3.org/1999/xlink" contentStyleType="text/css" height="876px" preserveAspectRatio="none" style="width:1675px;height:876px;background:#FFFFFF;" version="1.1" viewBox="0 0 1675 876" width="1675px" zoomAndPan="magnify"><defs/><g><!--cluster 04a7da3c5b04cad85da1eebb92315b8b--><g id="cluster_04a7da3c5b04cad85da1eebb92315b8b"><polygon fill="none" points="16,16,26,6,602,6,602,849.42,592,859.42,16,859.42,16,16" style="stroke:#181818;stroke-width:1.0;"/><line style="stroke:#181818;stroke-width:1.0;" x1="592" x2="602" y1="16" y2="6"/><line style="stroke:#181818;stroke-width:1.0;" x1="16" x2="592" y1="16" y2="16"/><line style="stroke:#181818;stroke-width:1.0;" x1="592" x2="592" y1="16" y2="859.42"/><text fill="#000000" font-family="sans-serif" font-size="14" font-weight="bold" lengthAdjust="spacing" textLength="61" x="274.5" y="31.9951">Lambda</text></g><!--cluster 6ebb7423072c5943f52c11274fd71b0b--><g id="cluster_6ebb7423072c5943f52c11274fd71b0b"><polygon fill="none" points="626,16,636,6,952,6,952,163.48,942,173.48,626,173.48,626,16" style="stroke:#181818;stroke-width:1.0;"/><line style="stroke:#181818;stroke-width:1.0;" x1="942" x2="952" y1="16" y2="6"/><line style="stroke:#181818;stroke-width:1.0;" x1="626" x2="942" y1="16" y2="16"/><line style="stroke:#181818;stroke-width:1.0;" x1="942" x2="942" y1="16" y2="173.48"/><text fill="#000000" font-family="sans-serif" font-size="14" font-weight="bold" lengthAdjust="spacing" textLength="83" x="743.5" y="31.9951">Dynamodb</text></g><!--cluster ef4ba2f338cdf4b615ed280ff0b2777d--><g id="cluster_ef4ba2f338cdf4b615ed280ff0b2777d"><polygon fill="none" points="976,16,986,6,1304,6,1304,163.48,1294,173.48,976,173.48,976,16" style="stroke:#181818;stroke-width:1.0;"/><line style="stroke:#181818;stroke-width:1.0;" x1="1294" x2="1304" y1="16" y2="6"/><line style="stroke:#181818;stroke-width:1.0;" x1="976" x2="1294" y1="16" y2="16"/><line style="stroke:#181818;stroke-width:1.0;" x1="1294" x2="1294" y1="16" y2="173.48"/><text fill="#000000" font-family="sans-serif" font-size="14" font-weight="bold" lengthAdjust="spacing" textLength="29" x="1121.5" y="31.9951">Sqs</text></g><!--cluster ba39a5f0aa547715c4df694144393752--><g id="cluster_ba39a5f0aa547715c4df694144393752"><polygon fill="none" points="626,701.94,636,691.94,1574,691.94,1574,849.42,1564,859.42,626,859.42,626,701.94" style="stroke:#181818;stroke-width:1.0;"/><line style="stroke:#181818;stroke-width:1.0;" x1="1564" x2="1574" y1="701.94" y2="691.94"/><line style="stroke:#181818;stroke-width:1.0;" x1="626" x2="1564" y1="701.94" y2="701.94"/><line style="stroke:#181818;stroke-width:1.0;" x1="1564" x2="1564" y1="701.94" y2="859.42"/><text fill="#000000" font-family="sans-serif" font-size="14" font-weight="bold" lengthAdjust="spacing" textLength="92" x="1050" y="717.9351">Apigateway</text></g><!--cluster 54afc4697cf03d8e3ec9a05b16380622--><g id="cluster_54afc4697cf03d8e3ec9a05b16380622"><polygon fill="none" points="1328,16,1338,6,1658,6,1658,163.48,1648,173.48,1328,173.48,1328,16" style="stroke:#181818;stroke-width:1.0;"/><line style="stroke:#181818;stroke-width:1.0;" x1="1648" x2="1658" y1="16" y2="6"/><line style="stroke:#181818;stroke-width:1.0;" x1="1328" x2="1648" y1="16" y2="16"/><line style="stroke:#181818;stroke-width:1.0;" x1="1648" x2="1648" y1="16" y2="173.48"/><text fill="#000000" font-family="sans-serif" font-size="14" font-weight="bold" lengthAdjust="spacing" textLength="29" x="1474.5" y="31.9951">Sns</text></g><!--entity 630e3cc8492d965e4f89f4a64d4c5d81--><g id="elem_630e3cc8492d965e4f89f4a64d4c5d81"><rect fill="#F1F1F1" height="111.4844" rx="2.5" ry="2.5" style="stroke:#181818;stroke-width:0.5;" width="376" x="173" y="46"/><rect fill="#F1F1F1" height="10" style="stroke:#181818;stroke-width:0.5;" width="15" x="529" y="51"/><rect fill="#F1F1F1" height="2" style="stroke:#181818;stroke-width:0.5;" width="4" x="527" y="53"/><rect fill="#F1F1F1" height="2" style="stroke:#181818;stroke-width:0.5;" width="4" x="527" y="57"/><text fill="#000000" font-family="sans-serif" font-size="14" font-weight="bold" lengthAdjust="spacing" textLength="336" x="188" y="78.9951">lambda_${local.lambda.function_v1_name}</text><text fill="#000000" font-family="sans-serif" font-size="14" lengthAdjust="spacing" textLength="4" x="188" y="95.292">&#160;</text><text fill="#000000" font-family="sans-serif" font-size="14" lengthAdjust="spacing" textLength="228" x="188" y="111.5889">terraform name: hello_lambda_v1</text><text fill="#000000" font-family="sans-serif" font-size="14" lengthAdjust="spacing" textLength="253" x="188" y="127.8857">terraform type: aws_lambda_function</text><text fill="#000000" font-family="sans-serif" font-size="14" lengthAdjust="spacing" textLength="4" x="188" y="144.1826">&#160;</text></g><!--entity 99169c2d0f9142f0fe863f60d0d5d1b6--><g id="elem_99169c2d0f9142f0fe863f60d0d5d1b6"><rect fill="#F1F1F1" height="111.4844" rx="2.5" ry="2.5" style="stroke:#181818;stroke-width:0.5;" width="376" x="173" y="217.48"/><rect fill="#F1F1F1" height="10" style="stroke:#181818;stroke-width:0.5;" width="15" x="529" y="222.48"/><rect fill="#F1F1F1" height="2" style="stroke:#181818;stroke-width:0.5;" width="4" x="527" y="224.48"/><rect fill="#F1F1F1" height="2" style="stroke:#181818;stroke-width:0.5;" width="4" x="527" y="228.48"/><text fill="#000000" font-family="sans-serif" font-size="14" font-weight="bold" lengthAdjust="spacing" textLength="336" x="188" y="250.4751">lambda_${local.lambda.function_v3_name}</text><text fill="#000000" font-family="sans-serif" font-size="14" lengthAdjust="spacing" textLength="4" x="188" y="266.772">&#160;</text><text fill="#000000" font-family="sans-serif" font-size="14" lengthAdjust="spacing" textLength="228" x="188" y="283.0689">terraform name: hello_lambda_v3</text><text fill="#000000" font-family="sans-serif" font-size="14" lengthAdjust="spacing" textLength="253" x="188" y="299.3657">terraform type: aws_lambda_function</text><text fill="#000000" font-family="sans-serif" font-size="14" lengthAdjust="spacing" textLength="4" x="188" y="315.6626">&#160;</text></g><!--entity d8fd1d4de7bf4a08cd4b7bd039ddb824--><g id="elem_d8fd1d4de7bf4a08cd4b7bd039ddb824"><rect fill="#F1F1F1" height="111.4844" rx="2.5" ry="2.5" style="stroke:#181818;stroke-width:0.5;" width="406" x="106" y="388.97"/><rect fill="#F1F1F1" height="10" style="stroke:#181818;stroke-width:0.5;" width="15" x="492" y="393.97"/><rect fill="#F1F1F1" height="2" style="stroke:#181818;stroke-width:0.5;" width="4" x="490" y="395.97"/><rect fill="#F1F1F1" height="2" style="stroke:#181818;stroke-width:0.5;" width="4" x="490" y="399.97"/><text fill="#000000" font-family="sans-serif" font-size="14" font-weight="bold" lengthAdjust="spacing" textLength="366" x="121" y="421.9651">lambda_${local.lambda.function_v4_name}_zip</text><text fill="#000000" font-family="sans-serif" font-size="14" lengthAdjust="spacing" textLength="4" x="121" y="438.262">&#160;</text><text fill="#000000" font-family="sans-serif" font-size="14" lengthAdjust="spacing" textLength="255" x="121" y="454.5589">terraform name: hello_lambda_v4_zip</text><text fill="#000000" font-family="sans-serif" font-size="14" lengthAdjust="spacing" textLength="253" x="121" y="470.8557">terraform type: aws_lambda_function</text><text fill="#000000" font-family="sans-serif" font-size="14" lengthAdjust="spacing" textLength="4" x="121" y="487.1526">&#160;</text></g><!--entity 8152e79a524feb79c8a045757bbf5d0f--><g id="elem_8152e79a524feb79c8a045757bbf5d0f"><rect fill="#F1F1F1" height="111.4844" rx="2.5" ry="2.5" style="stroke:#181818;stroke-width:0.5;" width="376" x="210" y="560.45"/><rect fill="#F1F1F1" height="10" style="stroke:#181818;stroke-width:0.5;" width="15" x="566" y="565.45"/><rect fill="#F1F1F1" height="2" style="stroke:#181818;stroke-width:0.5;" width="4" x="564" y="567.45"/><rect fill="#F1F1F1" height="2" style="stroke:#181818;stroke-width:0.5;" width="4" x="564" y="571.45"/><text fill="#000000" font-family="sans-serif" font-size="14" font-weight="bold" lengthAdjust="spacing" textLength="336" x="225" y="593.4451">lambda_${local.lambda.function_v2_name}</text><text fill="#000000" font-family="sans-serif" font-size="14" lengthAdjust="spacing" textLength="4" x="225" y="609.742">&#160;</text><text fill="#000000" font-family="sans-serif" font-size="14" lengthAdjust="spacing" textLength="228" x="225" y="626.0389">terraform name: hello_lambda_v2</text><text fill="#000000" font-family="sans-serif" font-size="14" lengthAdjust="spacing" textLength="253" x="225" y="642.3357">terraform type: aws_lambda_function</text><text fill="#000000" font-family="sans-serif" font-size="14" lengthAdjust="spacing" textLength="4" x="225" y="658.6326">&#160;</text></g><!--entity a2716b5b1d5a6a787045cffbd8a6c8e0--><g id="elem_a2716b5b1d5a6a787045cffbd8a6c8e0"><rect fill="#F1F1F1" height="111.4844" rx="2.5" ry="2.5" style="stroke:#181818;stroke-width:0.5;" width="376" x="32" y="731.94"/><rect fill="#F1F1F1" height="10" style="stroke:#181818;stroke-width:0.5;" width="15" x="388" y="736.94"/><rect fill="#F1F1F1" height="2" style="stroke:#181818;stroke-width:0.5;" width="4" x="386" y="738.94"/><rect fill="#F1F1F1" height="2" style="stroke:#181818;stroke-width:0.5;" width="4" x="386" y="742.94"/><text fill="#000000" font-family="sans-serif" font-size="14" font-weight="bold" lengthAdjust="spacing" textLength="336" x="47" y="764.9351">lambda_${local.lambda.function_v4_name}</text><text fill="#000000" font-family="sans-serif" font-size="14" lengthAdjust="spacing" textLength="4" x="47" y="781.232">&#160;</text><text fill="#000000" font-family="sans-serif" font-size="14" lengthAdjust="spacing" textLength="228" x="47" y="797.5289">terraform name: hello_lambda_v4</text><text fill="#000000" font-family="sans-serif" font-size="14" lengthAdjust="spacing" textLength="253" x="47" y="813.8257">terraform type: aws_lambda_function</text><text fill="#000000" font-family="sans-serif" font-size="14" lengthAdjust="spacing" textLength="4" x="47" y="830.1226">&#160;</text></g><!--entity 47224eb0ec32c15d2297ee94b9a75374--><g id="elem_47224eb0ec32c15d2297ee94b9a75374"><rect fill="#F1F1F1" height="111.4844" rx="2.5" ry="2.5" style="stroke:#181818;stroke-width:0.5;" width="294" x="642" y="46"/><rect fill="#F1F1F1" height="10" style="stroke:#181818;stroke-width:0.5;" width="15" x="916" y="51"/><rect fill="#F1F1F1" height="2" style="stroke:#181818;stroke-width:0.5;" width="4" x="914" y="53"/><rect fill="#F1F1F1" height="2" style="stroke:#181818;stroke-width:0.5;" width="4" x="914" y="57"/><text fill="#000000" font-family="sans-serif" font-size="14" font-weight="bold" lengthAdjust="spacing" textLength="168" x="657" y="78.9951">dynamodb_Messages</text><text fill="#000000" font-family="sans-serif" font-size="14" lengthAdjust="spacing" textLength="4" x="657" y="95.292">&#160;</text><text fill="#000000" font-family="sans-serif" font-size="14" lengthAdjust="spacing" textLength="228" x="657" y="111.5889">terraform name: messages_table</text><text fill="#000000" font-family="sans-serif" font-size="14" lengthAdjust="spacing" textLength="254" x="657" y="127.8857">terraform type: aws_dynamodb_table</text><text fill="#000000" font-family="sans-serif" font-size="14" lengthAdjust="spacing" textLength="4" x="657" y="144.1826">&#160;</text></g><!--entity 0b8f86553dbce75eb5e2b40657a25830--><g id="elem_0b8f86553dbce75eb5e2b40657a25830"><rect fill="#F1F1F1" height="111.4844" rx="2.5" ry="2.5" style="stroke:#181818;stroke-width:0.5;" width="296" x="992" y="46"/><rect fill="#F1F1F1" height="10" style="stroke:#181818;stroke-width:0.5;" width="15" x="1268" y="51"/><rect fill="#F1F1F1" height="2" style="stroke:#181818;stroke-width:0.5;" width="4" x="1266" y="53"/><rect fill="#F1F1F1" height="2" style="stroke:#181818;stroke-width:0.5;" width="4" x="1266" y="57"/><text fill="#000000" font-family="sans-serif" font-size="14" font-weight="bold" lengthAdjust="spacing" textLength="148" x="1007" y="78.9951">sqs_test-queue-01</text><text fill="#000000" font-family="sans-serif" font-size="14" lengthAdjust="spacing" textLength="4" x="1007" y="95.292">&#160;</text><text fill="#000000" font-family="sans-serif" font-size="14" lengthAdjust="spacing" textLength="256" x="1007" y="111.5889">terraform name: message_queue_01</text><text fill="#000000" font-family="sans-serif" font-size="14" lengthAdjust="spacing" textLength="217" x="1007" y="127.8857">terraform type: aws_sqs_queue</text><text fill="#000000" font-family="sans-serif" font-size="14" lengthAdjust="spacing" textLength="4" x="1007" y="144.1826">&#160;</text></g><!--entity 929165b7a6e4c2bedac1defbff9b1ae8--><g id="elem_929165b7a6e4c2bedac1defbff9b1ae8"><rect fill="#F1F1F1" height="111.4844" rx="2.5" ry="2.5" style="stroke:#181818;stroke-width:0.5;" width="556" x="1002" y="731.94"/><rect fill="#F1F1F1" height="10" style="stroke:#181818;stroke-width:0.5;" width="15" x="1538" y="736.94"/><rect fill="#F1F1F1" height="2" style="stroke:#181818;stroke-width:0.5;" width="4" x="1536" y="738.94"/><rect fill="#F1F1F1" height="2" style="stroke:#181818;stroke-width:0.5;" width="4" x="1536" y="742.94"/><text fill="#000000" font-family="sans-serif" font-size="14" font-weight="bold" lengthAdjust="spacing" textLength="516" x="1017" y="764.9351">apigateway_${aws_api_gateway_rest_api.hello_lambda_api.name}</text><text fill="#000000" font-family="sans-serif" font-size="14" lengthAdjust="spacing" textLength="4" x="1017" y="781.232">&#160;</text><text fill="#000000" font-family="sans-serif" font-size="14" lengthAdjust="spacing" textLength="154" x="1017" y="797.5289">terraform name: name</text><text fill="#000000" font-family="sans-serif" font-size="14" lengthAdjust="spacing" textLength="285" x="1017" y="813.8257">terraform type: aws_api_gateway_rest_api</text><text fill="#000000" font-family="sans-serif" font-size="14" lengthAdjust="spacing" textLength="4" x="1017" y="830.1226">&#160;</text></g><!--entity 25b2164d49e3aef18f37619b33c6dbaa--><g id="elem_25b2164d49e3aef18f37619b33c6dbaa"><rect fill="#F1F1F1" height="111.4844" rx="2.5" ry="2.5" style="stroke:#181818;stroke-width:0.5;" width="325" x="642.5" y="731.94"/><rect fill="#F1F1F1" height="10" style="stroke:#181818;stroke-width:0.5;" width="15" x="947.5" y="736.94"/><rect fill="#F1F1F1" height="2" style="stroke:#181818;stroke-width:0.5;" width="4" x="945.5" y="738.94"/><rect fill="#F1F1F1" height="2" style="stroke:#181818;stroke-width:0.5;" width="4" x="945.5" y="742.94"/><text fill="#000000" font-family="sans-serif" font-size="14" font-weight="bold" lengthAdjust="spacing" textLength="220" x="657.5" y="764.9351">apigateway_http-api-lambda</text><text fill="#000000" font-family="sans-serif" font-size="14" lengthAdjust="spacing" textLength="4" x="657.5" y="781.232">&#160;</text><text fill="#000000" font-family="sans-serif" font-size="14" lengthAdjust="spacing" textLength="232" x="657.5" y="797.5289">terraform name: hello_lambda_api</text><text fill="#000000" font-family="sans-serif" font-size="14" lengthAdjust="spacing" textLength="285" x="657.5" y="813.8257">terraform type: aws_api_gateway_rest_api</text><text fill="#000000" font-family="sans-serif" font-size="14" lengthAdjust="spacing" textLength="4" x="657.5" y="830.1226">&#160;</text></g><!--entity f7f0043c69285aae885e2d719c6d02cb--><g id="elem_f7f0043c69285aae885e2d719c6d02cb"><rect fill="#F1F1F1" height="111.4844" rx="2.5" ry="2.5" style="stroke:#181818;stroke-width:0.5;" width="298" x="1344" y="46"/><rect fill="#F1F1F1" height="10" style="stroke:#181818;stroke-width:0.5;" width="15" x="1622" y="51"/><rect fill="#F1F1F1" height="2" style="stroke:#181818;stroke-width:0.5;" width="4" x="1620" y="53"/><rect fill="#F1F1F1" height="2" style="stroke:#181818;stroke-width:0.5;" width="4" x="1620" y="57"/><text fill="#000000" font-family="sans-serif" font-size="14" font-weight="bold" lengthAdjust="spacing" textLength="198" x="1359" y="78.9951">sns_hello_world_topic_01</text><text fill="#000000" font-family="sans-serif" font-size="14" lengthAdjust="spacing" textLength="4" x="1359" y="95.292">&#160;</text><text fill="#000000" font-family="sans-serif" font-size="14" lengthAdjust="spacing" textLength="258" x="1359" y="111.5889">terraform name: hello_world_topic_01</text><text fill="#000000" font-family="sans-serif" font-size="14" lengthAdjust="spacing" textLength="206" x="1359" y="127.8857">terraform type: aws_sns_topic</text><text fill="#000000" font-family="sans-serif" font-size="14" lengthAdjust="spacing" textLength="4" x="1359" y="144.1826">&#160;</text></g><!--link 630e3cc8492d965e4f89f4a64d4c5d81 to 25b2164d49e3aef18f37619b33c6dbaa--><g id="link_630e3cc8492d965e4f89f4a64d4c5d81_25b2164d49e3aef18f37619b33c6dbaa"><path codeLine="82" d="M501.67,157.93 C529.97,173.9 557.56,193.63 579,217.48 C717.77,371.88 776.33,621.87 796.3,731.81 " fill="none" id="630e3cc8492d965e4f89f4a64d4c5d81-25b2164d49e3aef18f37619b33c6dbaa" style="stroke:#181818;stroke-width:1.0;"/></g><!--link 630e3cc8492d965e4f89f4a64d4c5d81 to 8152e79a524feb79c8a045757bbf5d0f--><g id="link_630e3cc8492d965e4f89f4a64d4c5d81_8152e79a524feb79c8a045757bbf5d0f"><path codeLine="83" d="M506.31,157.94 C530.16,173.54 551.72,193.12 566,217.48 C588.71,256.21 553.95,489.85 548,500.45 C535.01,523.61 515.22,543.61 494.24,560.12 " fill="none" id="630e3cc8492d965e4f89f4a64d4c5d81-8152e79a524feb79c8a045757bbf5d0f" style="stroke:#181818;stroke-width:1.0;"/></g><!--link 630e3cc8492d965e4f89f4a64d4c5d81 to 99169c2d0f9142f0fe863f60d0d5d1b6--><g id="link_630e3cc8492d965e4f89f4a64d4c5d81_99169c2d0f9142f0fe863f60d0d5d1b6"><path codeLine="84" d="M361,157.77 C361,176.81 361,198.14 361,217.18 " fill="none" id="630e3cc8492d965e4f89f4a64d4c5d81-99169c2d0f9142f0fe863f60d0d5d1b6" style="stroke:#181818;stroke-width:1.0;"/></g><!--link 630e3cc8492d965e4f89f4a64d4c5d81 to a2716b5b1d5a6a787045cffbd8a6c8e0--><g id="link_630e3cc8492d965e4f89f4a64d4c5d81_a2716b5b1d5a6a787045cffbd8a6c8e0"><path codeLine="85" d="M212.82,157.82 C183.13,173.76 154.02,193.5 131,217.48 C73.14,277.75 71.5,307.27 54,388.97 C27.61,512.16 9.86,561.77 71,671.94 C83.83,695.06 103.46,715.04 124.3,731.54 " fill="none" id="630e3cc8492d965e4f89f4a64d4c5d81-a2716b5b1d5a6a787045cffbd8a6c8e0" style="stroke:#181818;stroke-width:1.0;"/></g><!--link 630e3cc8492d965e4f89f4a64d4c5d81 to d8fd1d4de7bf4a08cd4b7bd039ddb824--><g id="link_630e3cc8492d965e4f89f4a64d4c5d81_d8fd1d4de7bf4a08cd4b7bd039ddb824"><path codeLine="86" d="M215.69,157.94 C191.84,173.54 170.28,193.12 156,217.48 C130.94,260.23 133.84,284.65 156,328.97 C167.73,352.43 186.79,372.34 207.54,388.65 " fill="none" id="630e3cc8492d965e4f89f4a64d4c5d81-d8fd1d4de7bf4a08cd4b7bd039ddb824" style="stroke:#181818;stroke-width:1.0;"/></g><!--link 99169c2d0f9142f0fe863f60d0d5d1b6 to 8152e79a524feb79c8a045757bbf5d0f--><g id="link_99169c2d0f9142f0fe863f60d0d5d1b6_8152e79a524feb79c8a045757bbf5d0f"><path codeLine="87" d="M475.45,329.31 C497.36,345.36 517.38,365.15 530,388.97 C553.2,432.75 550.55,455.36 530,500.45 C519.55,523.38 502,543.51 483.05,560.23 " fill="none" id="99169c2d0f9142f0fe863f60d0d5d1b6-8152e79a524feb79c8a045757bbf5d0f" style="stroke:#181818;stroke-width:1.0;"/></g><!--link 99169c2d0f9142f0fe863f60d0d5d1b6 to a2716b5b1d5a6a787045cffbd8a6c8e0--><g id="link_99169c2d0f9142f0fe863f60d0d5d1b6_a2716b5b1d5a6a787045cffbd8a6c8e0"><path codeLine="88" d="M172.73,318.89 C139.25,335.41 108.56,358.03 88,388.97 C15.43,498.19 110.49,650.77 173.11,731.51 " fill="none" id="99169c2d0f9142f0fe863f60d0d5d1b6-a2716b5b1d5a6a787045cffbd8a6c8e0" style="stroke:#181818;stroke-width:1.0;"/></g><!--link 99169c2d0f9142f0fe863f60d0d5d1b6 to d8fd1d4de7bf4a08cd4b7bd039ddb824--><g id="link_99169c2d0f9142f0fe863f60d0d5d1b6_d8fd1d4de7bf4a08cd4b7bd039ddb824"><path codeLine="89" d="M344.12,329.25 C338.27,348.29 331.73,369.63 325.89,388.67 " fill="none" id="99169c2d0f9142f0fe863f60d0d5d1b6-d8fd1d4de7bf4a08cd4b7bd039ddb824" style="stroke:#181818;stroke-width:1.0;"/></g><!--link d8fd1d4de7bf4a08cd4b7bd039ddb824 to 8152e79a524feb79c8a045757bbf5d0f--><g id="link_d8fd1d4de7bf4a08cd4b7bd039ddb824_8152e79a524feb79c8a045757bbf5d0f"><path codeLine="90" d="M337.9,500.74 C347.89,519.78 359.1,541.11 369.1,560.15 " fill="none" id="d8fd1d4de7bf4a08cd4b7bd039ddb824-8152e79a524feb79c8a045757bbf5d0f" style="stroke:#181818;stroke-width:1.0;"/></g><!--link d8fd1d4de7bf4a08cd4b7bd039ddb824 to a2716b5b1d5a6a787045cffbd8a6c8e0--><g id="link_d8fd1d4de7bf4a08cd4b7bd039ddb824_a2716b5b1d5a6a787045cffbd8a6c8e0"><path codeLine="91" d="M235.59,500.86 C218.37,517.88 202.33,538.1 193,560.45 C169.99,615.57 183.52,684.37 198.49,731.54 " fill="none" id="d8fd1d4de7bf4a08cd4b7bd039ddb824-a2716b5b1d5a6a787045cffbd8a6c8e0" style="stroke:#181818;stroke-width:1.0;"/></g><!--link 8152e79a524feb79c8a045757bbf5d0f to 25b2164d49e3aef18f37619b33c6dbaa--><g id="link_8152e79a524feb79c8a045757bbf5d0f_25b2164d49e3aef18f37619b33c6dbaa"><path codeLine="92" d="M572.81,672.43 C582.74,676.17 592.53,680.02 602,683.94 C635.67,697.87 671.43,715.1 703.41,731.45 " fill="none" id="8152e79a524feb79c8a045757bbf5d0f-25b2164d49e3aef18f37619b33c6dbaa" style="stroke:#181818;stroke-width:1.0;"/></g><!--link 8152e79a524feb79c8a045757bbf5d0f to a2716b5b1d5a6a787045cffbd8a6c8e0--><g id="link_8152e79a524feb79c8a045757bbf5d0f_a2716b5b1d5a6a787045cffbd8a6c8e0"><path codeLine="93" d="M340.21,672.22 C320.21,691.26 297.81,712.59 277.81,731.64 " fill="none" id="8152e79a524feb79c8a045757bbf5d0f-a2716b5b1d5a6a787045cffbd8a6c8e0" style="stroke:#181818;stroke-width:1.0;"/></g><!--SRC=[bPLDRziu48Rl-XL2qLC01_p-s5k17hkdFHOBOOOpJ0tOacCfJRD1_ljILf9D0dT5Nmo97Bnwtl4x9Ensm_r- -slRtpJzGDn- -WPx9FZKmjWA0vv09ul29A1W2IGpObHQMWpOFZPj6lQ7eUT-QfqMh5CA9YgAphB98MO3pf19be9ilpTNLxkJUlVvSJSas5qlhzVvha_JTkYxdxBhOSzFLrTDC_7n27auxjjvwO_s1nVMxbdWftopFpqSoZxSZo-xBtfDytVp7s2CqiMaIEGeZSeYSt0wEq62B4bqLO2w5b1V3aWXaoH3xB4qJeH41ZsIq948Wp9LW6O1xFxP7jOXpLnsEMYGLh6FO9N9Z3wc0C9ORprYjgM_LQ2gjfFgSa1GNZgqACc20nzymKiv8mLmAR2uf9CLNQm5V7gUiQyFHMOWF4sPAnFbZTB2gsIZqTcg9ANo9fENA3vCcV5A6KR1IPSoIqf5pnmDHl1M-oKZzApV_SdZ23SydlEmVzxh9i0TdxNmghEKl77mr-ruWkTi45JMkeIrF3ffcLGGEGjKtdjw3oymvE2irOI9lMMqhD08Ppqe6_Jojuot1Od7QNDxntUy4V9_uBjJJIVEdmQpqgdWBVcNm_O69hw7XvC115rod0M0DTvBcmnb5uqqHaVjhNfl8AfoXbZquDWaXKoG9776d2DAu70o0AzVADcQESf2zx9oBCxcXUjt4PeNVXks-VUiltEwx-T0MLHoFe4ZQ-0iGzRUoOXQ9qS8y97tnpGTDkLzit2jHd_-u2Lah_7fb_XO0paP5ttAGbDWpIc2A7FhT11EVUX-zba8Kz2Z2XPAkqF9JncIMCm8bN29Jpzs2-FzSDnHDms7RUhEf-XStVaa5T5JmM9YzQhRq6QrztKgQqTjdShQrLUdidQgrgcitNBDwZrTrPSgbLL7LIghZbOlzYf7LIghZbRlxghiLgciiVmB]--></g></svg>